<mxfile host="65bd71144e">
    <diagram id="Uh6QsPy6_SlyniQGsWLO" name="Page-1">
        <mxGraphModel dx="1078" dy="716" grid="1" gridSize="10" guides="1" tooltips="1" connect="1" arrows="1" fold="1" page="1" pageScale="1" pageWidth="750" pageHeight="1350" background="#ffffff" math="0" shadow="0">
            <root>
                <mxCell id="0"/>
                <mxCell id="1" parent="0"/>
                <mxCell id="5" value="" style="rounded=1;whiteSpace=wrap;html=1;fillColor=#f5f5f5;fontColor=#333333;strokeColor=none;" parent="1" vertex="1">
                    <mxGeometry x="19.06" width="150" height="370" as="geometry"/>
                </mxCell>
                <mxCell id="6" value="" style="rounded=1;whiteSpace=wrap;html=1;fillColor=#ffe6cc;strokeColor=none;" parent="1" vertex="1">
                    <mxGeometry x="290" width="150" height="1330" as="geometry"/>
                </mxCell>
                <mxCell id="32" value="" style="rounded=1;whiteSpace=wrap;html=1;fillColor=#f5f5f5;strokeColor=#82b366;fontColor=#333333;fontFamily=楷体;fontSize=15;" parent="1" vertex="1">
                    <mxGeometry x="300" y="200" width="130" height="70" as="geometry"/>
                </mxCell>
                <mxCell id="7" value="" style="rounded=1;whiteSpace=wrap;html=1;fillColor=#f8cecc;strokeColor=none;" parent="1" vertex="1">
                    <mxGeometry x="561" width="150" height="1190" as="geometry"/>
                </mxCell>
                <mxCell id="10" value="采购人" style="text;html=1;align=center;verticalAlign=middle;resizable=0;points=[];autosize=1;strokeColor=none;fillColor=none;fontStyle=1;fontSize=18;fontFamily=黑体;" parent="1" vertex="1">
                    <mxGeometry x="54.06" y="5" width="80" height="40" as="geometry"/>
                </mxCell>
                <mxCell id="12" value="代理机构" style="text;html=1;align=center;verticalAlign=middle;resizable=0;points=[];autosize=1;strokeColor=none;fillColor=none;fontStyle=1;fontSize=18;fontFamily=黑体;" parent="1" vertex="1">
                    <mxGeometry x="315" y="5" width="100" height="40" as="geometry"/>
                </mxCell>
                <mxCell id="13" value="供应商" style="text;html=1;align=center;verticalAlign=middle;resizable=0;points=[];autosize=1;strokeColor=none;fillColor=none;fontSize=18;fontStyle=1;fontFamily=黑体;" parent="1" vertex="1">
                    <mxGeometry x="596" y="5" width="80" height="40" as="geometry"/>
                </mxCell>
                <mxCell id="22" style="edgeStyle=none;html=1;exitX=0.5;exitY=1;exitDx=0;exitDy=0;entryX=0.5;entryY=0;entryDx=0;entryDy=0;fontFamily=楷体;fontSize=15;fillColor=#dae8fc;strokeColor=#6c8ebf;strokeWidth=2;" parent="1" source="15" target="16" edge="1">
                    <mxGeometry relative="1" as="geometry"/>
                </mxCell>
                <mxCell id="15" value="编辑项目信息" style="rounded=1;whiteSpace=wrap;html=1;fontFamily=楷体;fontSize=15;" parent="1" vertex="1">
                    <mxGeometry x="41.56" y="50" width="105" height="50" as="geometry"/>
                </mxCell>
                <mxCell id="23" style="edgeStyle=none;html=1;exitX=0.5;exitY=1;exitDx=0;exitDy=0;entryX=0.5;entryY=0;entryDx=0;entryDy=0;fontFamily=楷体;fontSize=15;fillColor=#dae8fc;strokeColor=#6c8ebf;strokeWidth=2;" parent="1" source="16" target="17" edge="1">
                    <mxGeometry relative="1" as="geometry"/>
                </mxCell>
                <mxCell id="16" value="上传采购文档" style="rounded=1;whiteSpace=wrap;html=1;fillColor=#dae8fc;strokeColor=#6c8ebf;fontFamily=楷体;fontSize=15;" parent="1" vertex="1">
                    <mxGeometry x="41.56" y="130" width="105" height="50" as="geometry"/>
                </mxCell>
                <mxCell id="24" style="edgeStyle=none;html=1;exitX=0.5;exitY=1;exitDx=0;exitDy=0;entryX=0.5;entryY=0;entryDx=0;entryDy=0;fontFamily=楷体;fontSize=15;fillColor=#dae8fc;strokeColor=#6c8ebf;strokeWidth=2;" parent="1" source="17" target="18" edge="1">
                    <mxGeometry relative="1" as="geometry"/>
                </mxCell>
                <mxCell id="17" value="选择代理方" style="rounded=1;whiteSpace=wrap;html=1;fillColor=#dae8fc;strokeColor=#6c8ebf;fontFamily=楷体;fontSize=15;" parent="1" vertex="1">
                    <mxGeometry x="41.56" y="210" width="105" height="50" as="geometry"/>
                </mxCell>
                <mxCell id="49" style="edgeStyle=orthogonalEdgeStyle;html=1;exitX=1;exitY=0.5;exitDx=0;exitDy=0;entryX=0;entryY=0.5;entryDx=0;entryDy=0;fontFamily=楷体;fontSize=15;fillColor=#dae8fc;strokeColor=#6c8ebf;strokeWidth=2;" parent="1" source="18" target="25" edge="1">
                    <mxGeometry relative="1" as="geometry"/>
                </mxCell>
                <mxCell id="18" value="发布招标委托" style="rounded=1;whiteSpace=wrap;html=1;fillColor=#dae8fc;strokeColor=#6c8ebf;fontFamily=楷体;fontSize=15;" parent="1" vertex="1">
                    <mxGeometry x="41.56" y="290" width="105" height="50" as="geometry"/>
                </mxCell>
                <mxCell id="40" style="edgeStyle=none;html=1;exitX=0.5;exitY=1;exitDx=0;exitDy=0;entryX=0.5;entryY=0;entryDx=0;entryDy=0;fontFamily=楷体;fontSize=15;fillColor=#d5e8d4;strokeColor=#82b366;strokeWidth=2;" parent="1" source="25" target="26" edge="1">
                    <mxGeometry relative="1" as="geometry"/>
                </mxCell>
                <mxCell id="25" value="查看委托信息" style="rounded=1;whiteSpace=wrap;html=1;fillColor=#d5e8d4;strokeColor=#82b366;fontFamily=楷体;fontSize=15;" parent="1" vertex="1">
                    <mxGeometry x="312.5" y="50" width="105" height="50" as="geometry"/>
                </mxCell>
                <mxCell id="80" style="edgeStyle=orthogonalEdgeStyle;html=1;exitX=0.5;exitY=1;exitDx=0;exitDy=0;entryX=0.5;entryY=0;entryDx=0;entryDy=0;fontFamily=楷体;fontSize=15;fillColor=#d5e8d4;strokeColor=#82b366;strokeWidth=2;" parent="1" source="26" target="28" edge="1">
                    <mxGeometry relative="1" as="geometry"/>
                </mxCell>
                <mxCell id="26" value="接受采购委托" style="rounded=1;whiteSpace=wrap;html=1;fillColor=#d5e8d4;strokeColor=#82b366;fontFamily=楷体;fontSize=15;" parent="1" vertex="1">
                    <mxGeometry x="312.5" y="130" width="105" height="50" as="geometry"/>
                </mxCell>
                <mxCell id="79" style="edgeStyle=orthogonalEdgeStyle;html=1;exitX=0.5;exitY=1;exitDx=0;exitDy=0;fontFamily=楷体;fontSize=15;fillColor=#d5e8d4;strokeColor=#82b366;strokeWidth=2;" parent="1" source="28" target="31" edge="1">
                    <mxGeometry relative="1" as="geometry"/>
                </mxCell>
                <mxCell id="28" value="招标" style="rounded=1;whiteSpace=wrap;html=1;fontFamily=楷体;fontSize=15;fillColor=#d5e8d4;strokeColor=#82b366;" parent="1" vertex="1">
                    <mxGeometry x="303" y="231" width="37" height="30" as="geometry"/>
                </mxCell>
                <mxCell id="29" value="询比" style="rounded=1;whiteSpace=wrap;html=1;fontFamily=楷体;fontSize=15;dashed=1;fillColor=#d5e8d4;strokeColor=#82b366;" parent="1" vertex="1">
                    <mxGeometry x="346.5" y="231" width="37" height="30" as="geometry"/>
                </mxCell>
                <mxCell id="30" value="..." style="rounded=1;whiteSpace=wrap;html=1;fontFamily=楷体;fontSize=15;dashed=1;fillColor=#d5e8d4;strokeColor=#82b366;" parent="1" vertex="1">
                    <mxGeometry x="390" y="231" width="37" height="30" as="geometry"/>
                </mxCell>
                <mxCell id="43" style="edgeStyle=none;html=1;exitX=0.5;exitY=1;exitDx=0;exitDy=0;entryX=0.5;entryY=0;entryDx=0;entryDy=0;fontFamily=楷体;fontSize=15;fillColor=#d5e8d4;strokeColor=#82b366;strokeWidth=2;" parent="1" source="31" target="34" edge="1">
                    <mxGeometry relative="1" as="geometry"/>
                </mxCell>
                <mxCell id="31" value="编辑招标信息" style="rounded=1;whiteSpace=wrap;html=1;fillColor=#d5e8d4;strokeColor=#82b366;fontFamily=楷体;fontSize=15;" parent="1" vertex="1">
                    <mxGeometry x="312.5" y="290" width="105" height="50" as="geometry"/>
                </mxCell>
                <mxCell id="33" value="选择采购方式" style="text;html=1;align=center;verticalAlign=middle;resizable=0;points=[];autosize=1;strokeColor=none;fillColor=none;fontSize=15;fontFamily=楷体;" parent="1" vertex="1">
                    <mxGeometry x="310" y="200" width="110" height="30" as="geometry"/>
                </mxCell>
                <mxCell id="48" style="edgeStyle=orthogonalEdgeStyle;html=1;exitX=1;exitY=0.5;exitDx=0;exitDy=0;entryX=0;entryY=0.5;entryDx=0;entryDy=0;fontFamily=楷体;fontSize=15;fillColor=#d5e8d4;strokeColor=#82b366;strokeWidth=2;" parent="1" source="34" target="35" edge="1">
                    <mxGeometry relative="1" as="geometry">
                        <Array as="points">
                            <mxPoint x="474" y="395"/>
                            <mxPoint x="474" y="75"/>
                        </Array>
                    </mxGeometry>
                </mxCell>
                <mxCell id="34" value="发布招标公告" style="rounded=1;whiteSpace=wrap;html=1;fillColor=#d5e8d4;strokeColor=#82b366;fontFamily=楷体;fontSize=15;" parent="1" vertex="1">
                    <mxGeometry x="312.5" y="370" width="105" height="50" as="geometry"/>
                </mxCell>
                <mxCell id="44" style="edgeStyle=none;html=1;exitX=0.5;exitY=1;exitDx=0;exitDy=0;entryX=0.5;entryY=0;entryDx=0;entryDy=0;fontFamily=楷体;fontSize=15;fillColor=#e1d5e7;strokeColor=#9673a6;strokeWidth=2;" parent="1" source="35" target="36" edge="1">
                    <mxGeometry relative="1" as="geometry"/>
                </mxCell>
                <mxCell id="35" value="预览标书" style="rounded=1;whiteSpace=wrap;html=1;fillColor=#e1d5e7;strokeColor=#9673a6;fontFamily=楷体;fontSize=15;" parent="1" vertex="1">
                    <mxGeometry x="583.5" y="50" width="105" height="50" as="geometry"/>
                </mxCell>
                <mxCell id="36" value="发起投标申请" style="rounded=1;whiteSpace=wrap;html=1;fillColor=#e1d5e7;strokeColor=#9673a6;fontFamily=楷体;fontSize=15;" parent="1" vertex="1">
                    <mxGeometry x="583.5" y="130" width="105" height="50" as="geometry"/>
                </mxCell>
                <mxCell id="51" value="" style="rounded=1;whiteSpace=wrap;html=1;fillColor=#f5f5f5;strokeColor=#9f7ba9;fontColor=#333333;fontFamily=楷体;fontSize=15;" parent="1" vertex="1">
                    <mxGeometry x="571" y="200" width="130" height="70" as="geometry"/>
                </mxCell>
                <mxCell id="52" value="审核方式" style="text;html=1;align=center;verticalAlign=middle;resizable=0;points=[];autosize=1;strokeColor=none;fillColor=none;fontSize=15;fontFamily=楷体;" parent="1" vertex="1">
                    <mxGeometry x="596" y="200" width="80" height="30" as="geometry"/>
                </mxCell>
                <mxCell id="63" value="人工" style="rounded=1;whiteSpace=wrap;html=1;fontFamily=楷体;fontSize=15;fillColor=#e1d5e7;strokeColor=#9673a6;" parent="1" vertex="1">
                    <mxGeometry x="586" y="231" width="37" height="30" as="geometry"/>
                </mxCell>
                <mxCell id="77" style="edgeStyle=orthogonalEdgeStyle;html=1;exitX=1;exitY=0.5;exitDx=0;exitDy=0;entryX=1;entryY=0.5;entryDx=0;entryDy=0;fontFamily=楷体;fontSize=15;dashed=1;fillColor=#e1d5e7;strokeColor=#9673a6;strokeWidth=2;" parent="1" source="64" target="68" edge="1">
                    <mxGeometry relative="1" as="geometry">
                        <Array as="points">
                            <mxPoint x="731" y="246"/>
                            <mxPoint x="731" y="395"/>
                        </Array>
                    </mxGeometry>
                </mxCell>
                <mxCell id="64" value="无" style="rounded=1;whiteSpace=wrap;html=1;fontFamily=楷体;fontSize=15;dashed=1;fillColor=#e1d5e7;strokeColor=#9673a6;" parent="1" vertex="1">
                    <mxGeometry x="649" y="231" width="37" height="30" as="geometry"/>
                </mxCell>
                <mxCell id="66" style="edgeStyle=orthogonalEdgeStyle;html=1;exitX=1;exitY=0.5;exitDx=0;exitDy=0;fontFamily=楷体;fontSize=15;fillColor=#e1d5e7;strokeColor=#9673a6;strokeWidth=2;" parent="1" source="65" target="36" edge="1">
                    <mxGeometry relative="1" as="geometry">
                        <mxPoint x="681" y="315" as="sourcePoint"/>
                        <mxPoint x="693.5" y="155" as="targetPoint"/>
                        <Array as="points">
                            <mxPoint x="721" y="315"/>
                            <mxPoint x="721" y="155"/>
                        </Array>
                    </mxGeometry>
                </mxCell>
                <mxCell id="92" value="未通过" style="edgeLabel;html=1;align=center;verticalAlign=middle;resizable=0;points=[];fontSize=15;fontFamily=楷体;labelBackgroundColor=none;" parent="66" vertex="1" connectable="0">
                    <mxGeometry x="0.3043" relative="1" as="geometry">
                        <mxPoint as="offset"/>
                    </mxGeometry>
                </mxCell>
                <mxCell id="69" style="edgeStyle=orthogonalEdgeStyle;html=1;exitX=0.5;exitY=1;exitDx=0;exitDy=0;entryX=0.5;entryY=0;entryDx=0;entryDy=0;fontFamily=楷体;fontSize=15;fillColor=#e1d5e7;strokeColor=#9673a6;strokeWidth=2;" parent="1" source="65" target="68" edge="1">
                    <mxGeometry relative="1" as="geometry"/>
                </mxCell>
                <mxCell id="65" value="等待审核" style="rhombus;whiteSpace=wrap;html=1;fontFamily=楷体;fontSize=15;fillColor=#e1d5e7;strokeColor=#9673a6;" parent="1" vertex="1">
                    <mxGeometry x="596" y="285" width="80" height="60" as="geometry"/>
                </mxCell>
                <mxCell id="72" style="edgeStyle=orthogonalEdgeStyle;html=1;exitX=0.5;exitY=1;exitDx=0;exitDy=0;entryX=0.5;entryY=0;entryDx=0;entryDy=0;fontFamily=楷体;fontSize=15;fillColor=#e1d5e7;strokeColor=#9673a6;strokeWidth=2;" parent="1" source="68" target="70" edge="1">
                    <mxGeometry relative="1" as="geometry"/>
                </mxCell>
                <mxCell id="68" value="支付标书费用" style="rounded=1;whiteSpace=wrap;html=1;fillColor=#e1d5e7;strokeColor=#9673a6;fontFamily=楷体;fontSize=15;" parent="1" vertex="1">
                    <mxGeometry x="583.5" y="370" width="105" height="50" as="geometry"/>
                </mxCell>
                <mxCell id="70" value="下载查看招标文件" style="rounded=1;whiteSpace=wrap;html=1;fillColor=#e1d5e7;strokeColor=#9673a6;fontFamily=楷体;fontSize=15;" parent="1" vertex="1">
                    <mxGeometry x="583.5" y="450" width="105" height="50" as="geometry"/>
                </mxCell>
                <mxCell id="76" style="edgeStyle=orthogonalEdgeStyle;html=1;exitX=1;exitY=0.75;exitDx=0;exitDy=0;entryX=0;entryY=0.5;entryDx=0;entryDy=0;fontFamily=楷体;fontSize=15;fillColor=#d5e8d4;strokeColor=#82b366;strokeWidth=2;" parent="1" source="74" target="65" edge="1">
                    <mxGeometry relative="1" as="geometry">
                        <Array as="points">
                            <mxPoint x="534" y="488"/>
                            <mxPoint x="534" y="315"/>
                        </Array>
                    </mxGeometry>
                </mxCell>
                <mxCell id="91" value="审核结果" style="edgeLabel;html=1;align=center;verticalAlign=middle;resizable=0;points=[];fontSize=15;fontFamily=楷体;labelBackgroundColor=none;" parent="76" vertex="1" connectable="0">
                    <mxGeometry x="-0.7323" relative="1" as="geometry">
                        <mxPoint as="offset"/>
                    </mxGeometry>
                </mxCell>
                <mxCell id="90" style="edgeStyle=orthogonalEdgeStyle;html=1;exitX=0.5;exitY=1;exitDx=0;exitDy=0;entryX=0.5;entryY=0;entryDx=0;entryDy=0;fontFamily=楷体;fontSize=15;fillColor=#d5e8d4;strokeColor=#82b366;strokeWidth=2;" parent="1" source="74" target="84" edge="1">
                    <mxGeometry relative="1" as="geometry"/>
                </mxCell>
                <mxCell id="74" value="审核投标" style="rounded=1;whiteSpace=wrap;html=1;fillColor=#d5e8d4;strokeColor=#82b366;fontFamily=楷体;fontSize=15;" parent="1" vertex="1">
                    <mxGeometry x="312.5" y="450" width="105" height="50" as="geometry"/>
                </mxCell>
                <mxCell id="75" style="edgeStyle=orthogonalEdgeStyle;html=1;exitX=0;exitY=0.5;exitDx=0;exitDy=0;entryX=1;entryY=0.25;entryDx=0;entryDy=0;fontFamily=楷体;fontSize=15;fillColor=#e1d5e7;strokeColor=#9673a6;strokeWidth=2;" parent="1" source="63" target="74" edge="1">
                    <mxGeometry relative="1" as="geometry">
                        <Array as="points">
                            <mxPoint x="504" y="246"/>
                            <mxPoint x="504" y="462"/>
                        </Array>
                    </mxGeometry>
                </mxCell>
                <mxCell id="60" style="edgeStyle=orthogonalEdgeStyle;html=1;exitX=0.5;exitY=1;exitDx=0;exitDy=0;fontFamily=楷体;fontSize=15;fillColor=#e1d5e7;strokeColor=#9673a6;strokeWidth=2;" parent="1" source="36" target="63" edge="1">
                    <mxGeometry relative="1" as="geometry"/>
                </mxCell>
                <mxCell id="206" style="edgeStyle=orthogonalEdgeStyle;html=1;exitX=0;exitY=0.5;exitDx=0;exitDy=0;entryX=1;entryY=0.25;entryDx=0;entryDy=0;strokeWidth=2;startArrow=none;startFill=0;fillColor=#e1d5e7;strokeColor=#9673a6;" parent="1" source="81" target="88" edge="1">
                    <mxGeometry relative="1" as="geometry">
                        <Array as="points">
                            <mxPoint x="444" y="672"/>
                            <mxPoint x="444" y="803"/>
                        </Array>
                    </mxGeometry>
                </mxCell>
                <mxCell id="81" value="等待项目开标" style="rounded=1;whiteSpace=wrap;html=1;fillColor=#e1d5e7;strokeColor=#9673a6;fontFamily=楷体;fontSize=15;" parent="1" vertex="1">
                    <mxGeometry x="583.5" y="647" width="105" height="50" as="geometry"/>
                </mxCell>
                <mxCell id="194" style="edgeStyle=orthogonalEdgeStyle;html=1;exitX=0.5;exitY=1;exitDx=0;exitDy=0;entryX=0.5;entryY=0;entryDx=0;entryDy=0;strokeWidth=2;startArrow=none;startFill=0;fillColor=#d5e8d4;strokeColor=#82b366;" parent="1" source="84" target="189" edge="1">
                    <mxGeometry relative="1" as="geometry"/>
                </mxCell>
                <mxCell id="84" value="等待报名截止" style="rounded=1;whiteSpace=wrap;html=1;fillColor=#d5e8d4;strokeColor=#82b366;fontFamily=楷体;fontSize=15;" parent="1" vertex="1">
                    <mxGeometry x="312.5" y="534.5" width="105" height="50" as="geometry"/>
                </mxCell>
                <mxCell id="89" style="edgeStyle=orthogonalEdgeStyle;html=1;exitX=0.5;exitY=1;exitDx=0;exitDy=0;entryX=0.5;entryY=0;entryDx=0;entryDy=0;fontFamily=楷体;fontSize=15;fillColor=#d5e8d4;strokeColor=#82b366;strokeWidth=2;" parent="1" source="85" target="88" edge="1">
                    <mxGeometry relative="1" as="geometry"/>
                </mxCell>
                <mxCell id="85" value="等待开标" style="rounded=1;whiteSpace=wrap;html=1;fillColor=#d5e8d4;strokeColor=#82b366;fontFamily=楷体;fontSize=15;" parent="1" vertex="1">
                    <mxGeometry x="312.5" y="710" width="105" height="50" as="geometry"/>
                </mxCell>
                <mxCell id="101" style="edgeStyle=orthogonalEdgeStyle;html=1;exitX=0.5;exitY=1;exitDx=0;exitDy=0;entryX=0.5;entryY=0;entryDx=0;entryDy=0;fontFamily=楷体;fontSize=15;fillColor=#d5e8d4;strokeColor=#82b366;strokeWidth=2;" parent="1" source="88" target="100" edge="1">
                    <mxGeometry relative="1" as="geometry"/>
                </mxCell>
                <mxCell id="207" style="edgeStyle=orthogonalEdgeStyle;html=1;exitX=1;exitY=0.5;exitDx=0;exitDy=0;entryX=0;entryY=0.5;entryDx=0;entryDy=0;strokeWidth=2;startArrow=none;startFill=0;fillColor=#d5e8d4;strokeColor=#82b366;" parent="1" source="88" target="95" edge="1">
                    <mxGeometry relative="1" as="geometry">
                        <Array as="points">
                            <mxPoint x="454" y="815"/>
                            <mxPoint x="454" y="752"/>
                        </Array>
                    </mxGeometry>
                </mxCell>
                <mxCell id="88" value="项目开标&lt;br style=&quot;font-size: 15px;&quot;&gt;解密文件" style="rounded=1;whiteSpace=wrap;html=1;fillColor=#d5e8d4;strokeColor=#82b366;fontFamily=楷体;fontSize=15;" parent="1" vertex="1">
                    <mxGeometry x="312.5" y="790" width="105" height="50" as="geometry"/>
                </mxCell>
                <mxCell id="94" value="&lt;span style=&quot;font-size: 15px;&quot;&gt;通过&lt;/span&gt;" style="text;html=1;align=center;verticalAlign=middle;resizable=0;points=[];autosize=1;strokeColor=none;fillColor=none;fontSize=15;fontFamily=楷体;labelBackgroundColor=none;" parent="1" vertex="1">
                    <mxGeometry x="636" y="340" width="50" height="30" as="geometry"/>
                </mxCell>
                <mxCell id="208" style="edgeStyle=orthogonalEdgeStyle;html=1;exitX=0;exitY=0.75;exitDx=0;exitDy=0;entryX=1;entryY=0.25;entryDx=0;entryDy=0;strokeWidth=2;startArrow=none;startFill=0;fillColor=#e1d5e7;strokeColor=#9673a6;" parent="1" source="95" target="102" edge="1">
                    <mxGeometry relative="1" as="geometry">
                        <Array as="points">
                            <mxPoint x="464" y="765"/>
                            <mxPoint x="464" y="963"/>
                        </Array>
                    </mxGeometry>
                </mxCell>
                <mxCell id="95" value="远程或现场开标" style="rounded=1;whiteSpace=wrap;html=1;fillColor=#e1d5e7;strokeColor=#9673a6;fontFamily=楷体;fontSize=15;" parent="1" vertex="1">
                    <mxGeometry x="583.5" y="727" width="105" height="50" as="geometry"/>
                </mxCell>
                <mxCell id="103" style="edgeStyle=orthogonalEdgeStyle;html=1;exitX=0.5;exitY=1;exitDx=0;exitDy=0;entryX=0.5;entryY=0;entryDx=0;entryDy=0;fontFamily=楷体;fontSize=15;fillColor=#d5e8d4;strokeColor=#82b366;strokeWidth=2;" parent="1" source="100" target="102" edge="1">
                    <mxGeometry relative="1" as="geometry"/>
                </mxCell>
                <mxCell id="100" value="专家组建" style="rounded=1;whiteSpace=wrap;html=1;fillColor=#d5e8d4;strokeColor=#82b366;fontFamily=楷体;fontSize=15;" parent="1" vertex="1">
                    <mxGeometry x="312.5" y="870" width="105" height="50" as="geometry"/>
                </mxCell>
                <mxCell id="110" style="edgeStyle=orthogonalEdgeStyle;html=1;exitX=0.5;exitY=1;exitDx=0;exitDy=0;entryX=0.5;entryY=0;entryDx=0;entryDy=0;fontFamily=楷体;fontSize=15;fillColor=#d5e8d4;strokeColor=#82b366;strokeWidth=2;" parent="1" source="102" target="104" edge="1">
                    <mxGeometry relative="1" as="geometry"/>
                </mxCell>
                <mxCell id="102" value="开始评标" style="rounded=1;whiteSpace=wrap;html=1;fillColor=#d5e8d4;strokeColor=#82b366;fontFamily=楷体;fontSize=15;" parent="1" vertex="1">
                    <mxGeometry x="312.5" y="950" width="105" height="50" as="geometry"/>
                </mxCell>
                <mxCell id="104" value="等待专家评审" style="rounded=1;whiteSpace=wrap;html=1;fillColor=#d5e8d4;strokeColor=#82b366;fontFamily=楷体;fontSize=15;" parent="1" vertex="1">
                    <mxGeometry x="312.5" y="1030" width="105" height="50" as="geometry"/>
                </mxCell>
                <mxCell id="112" style="edgeStyle=orthogonalEdgeStyle;html=1;exitX=0.5;exitY=1;exitDx=0;exitDy=0;entryX=0.5;entryY=0;entryDx=0;entryDy=0;fontFamily=楷体;fontSize=15;fillColor=#d5e8d4;strokeColor=#82b366;strokeWidth=2;" parent="1" source="105" target="106" edge="1">
                    <mxGeometry relative="1" as="geometry"/>
                </mxCell>
                <mxCell id="209" style="edgeStyle=orthogonalEdgeStyle;html=1;exitX=1;exitY=0.75;exitDx=0;exitDy=0;entryX=0;entryY=0.25;entryDx=0;entryDy=0;strokeWidth=2;startArrow=none;startFill=0;fillColor=#d5e8d4;strokeColor=#82b366;" parent="1" source="102" target="108" edge="1">
                    <mxGeometry relative="1" as="geometry">
                        <Array as="points">
                            <mxPoint x="474" y="988"/>
                            <mxPoint x="474" y="820"/>
                            <mxPoint x="584" y="820"/>
                        </Array>
                    </mxGeometry>
                </mxCell>
                <mxCell id="105" value="生成评审报告" style="rounded=1;whiteSpace=wrap;html=1;fillColor=#d5e8d4;strokeColor=#82b366;fontFamily=楷体;fontSize=15;" parent="1" vertex="1">
                    <mxGeometry x="312.5" y="1110" width="105" height="50" as="geometry"/>
                </mxCell>
                <mxCell id="113" style="edgeStyle=orthogonalEdgeStyle;html=1;exitX=0.5;exitY=1;exitDx=0;exitDy=0;entryX=0.5;entryY=0;entryDx=0;entryDy=0;fontFamily=楷体;fontSize=15;fillColor=#d5e8d4;strokeColor=#82b366;strokeWidth=2;" parent="1" source="106" target="107" edge="1">
                    <mxGeometry relative="1" as="geometry"/>
                </mxCell>
                <mxCell id="211" style="edgeStyle=orthogonalEdgeStyle;html=1;exitX=1;exitY=0.5;exitDx=0;exitDy=0;entryX=0;entryY=0.25;entryDx=0;entryDy=0;strokeWidth=2;startArrow=none;startFill=0;fillColor=#d5e8d4;strokeColor=#82b366;" parent="1" source="106" target="109" edge="1">
                    <mxGeometry relative="1" as="geometry">
                        <Array as="points">
                            <mxPoint x="514" y="1215"/>
                            <mxPoint x="514" y="900"/>
                            <mxPoint x="584" y="900"/>
                        </Array>
                    </mxGeometry>
                </mxCell>
                <mxCell id="106" value="确定并选择&lt;br style=&quot;font-size: 15px;&quot;&gt;公布候选人" style="rounded=1;whiteSpace=wrap;html=1;fillColor=#d5e8d4;strokeColor=#82b366;fontFamily=楷体;fontSize=15;" parent="1" vertex="1">
                    <mxGeometry x="312.5" y="1190" width="105" height="50" as="geometry"/>
                </mxCell>
                <mxCell id="213" style="edgeStyle=orthogonalEdgeStyle;html=1;exitX=1;exitY=0.75;exitDx=0;exitDy=0;entryX=0;entryY=0.25;entryDx=0;entryDy=0;strokeWidth=2;startArrow=none;startFill=0;fillColor=#d5e8d4;strokeColor=#82b366;" parent="1" source="107" target="119" edge="1">
                    <mxGeometry relative="1" as="geometry">
                        <Array as="points">
                            <mxPoint x="554" y="1306"/>
                            <mxPoint x="554" y="980"/>
                            <mxPoint x="584" y="980"/>
                        </Array>
                    </mxGeometry>
                </mxCell>
                <mxCell id="107" value="确定并选择&lt;br style=&quot;font-size: 15px;&quot;&gt;公布中标结果" style="rounded=1;whiteSpace=wrap;html=1;fillColor=#d5e8d4;strokeColor=#82b366;fontFamily=楷体;fontSize=15;" parent="1" vertex="1">
                    <mxGeometry x="312.5" y="1269" width="105" height="50" as="geometry"/>
                </mxCell>
                <mxCell id="210" style="edgeStyle=orthogonalEdgeStyle;html=1;exitX=0;exitY=0.75;exitDx=0;exitDy=0;entryX=1;entryY=0.5;entryDx=0;entryDy=0;strokeWidth=2;startArrow=none;startFill=0;fillColor=#e1d5e7;strokeColor=#9673a6;" parent="1" source="108" target="105" edge="1">
                    <mxGeometry relative="1" as="geometry">
                        <Array as="points">
                            <mxPoint x="494" y="844"/>
                            <mxPoint x="494" y="1135"/>
                        </Array>
                    </mxGeometry>
                </mxCell>
                <mxCell id="108" value="远程询标/线上报价" style="rounded=1;whiteSpace=wrap;html=1;fillColor=#e1d5e7;strokeColor=#9673a6;fontFamily=楷体;fontSize=15;" parent="1" vertex="1">
                    <mxGeometry x="583.5" y="807" width="105" height="50" as="geometry"/>
                </mxCell>
                <mxCell id="212" style="edgeStyle=orthogonalEdgeStyle;html=1;exitX=0;exitY=0.75;exitDx=0;exitDy=0;entryX=1;entryY=0.25;entryDx=0;entryDy=0;strokeWidth=2;startArrow=none;startFill=0;fillColor=#e1d5e7;strokeColor=#9673a6;" parent="1" source="109" target="107" edge="1">
                    <mxGeometry relative="1" as="geometry">
                        <Array as="points">
                            <mxPoint x="534" y="924"/>
                            <mxPoint x="534" y="1282"/>
                        </Array>
                    </mxGeometry>
                </mxCell>
                <mxCell id="109" value="接收候选人公示通知" style="rounded=1;whiteSpace=wrap;html=1;fillColor=#e1d5e7;strokeColor=#9673a6;fontFamily=楷体;fontSize=15;" parent="1" vertex="1">
                    <mxGeometry x="583.5" y="887" width="105" height="50" as="geometry"/>
                </mxCell>
                <mxCell id="145" style="edgeStyle=orthogonalEdgeStyle;html=1;exitX=0.5;exitY=1;exitDx=0;exitDy=0;entryX=0.5;entryY=0;entryDx=0;entryDy=0;strokeWidth=2;fontFamily=黑体;fontSize=18;fillColor=#e1d5e7;strokeColor=#9673a6;" parent="1" source="119" target="144" edge="1">
                    <mxGeometry relative="1" as="geometry"/>
                </mxCell>
                <mxCell id="231" style="edgeStyle=orthogonalEdgeStyle;html=1;exitX=1;exitY=0.5;exitDx=0;exitDy=0;entryX=1;entryY=0.5;entryDx=0;entryDy=0;strokeWidth=2;fontSize=10;fillColor=#e1d5e7;strokeColor=#9673a6;dashed=1;" edge="1" parent="1" source="119" target="230">
                    <mxGeometry relative="1" as="geometry">
                        <Array as="points">
                            <mxPoint x="724" y="992"/>
                            <mxPoint x="724" y="1155"/>
                        </Array>
                    </mxGeometry>
                </mxCell>
                <mxCell id="119" value="接收中标结果通知" style="rounded=1;whiteSpace=wrap;html=1;fillColor=#e1d5e7;strokeColor=#9673a6;fontFamily=楷体;fontSize=15;" parent="1" vertex="1">
                    <mxGeometry x="583.5" y="967" width="105" height="50" as="geometry"/>
                </mxCell>
                <mxCell id="126" value="编辑项目信息" style="rounded=1;whiteSpace=wrap;html=1;fillColor=#dae8fc;strokeColor=#6c8ebf;fontFamily=楷体;fontSize=15;" parent="1" vertex="1">
                    <mxGeometry x="41.56" y="50" width="105" height="50" as="geometry"/>
                </mxCell>
                <mxCell id="144" value="完成中标" style="rounded=1;whiteSpace=wrap;html=1;fillColor=#e1d5e7;strokeColor=#9673a6;fontFamily=楷体;fontSize=15;" parent="1" vertex="1">
                    <mxGeometry x="583.5" y="1047" width="105" height="50" as="geometry"/>
                </mxCell>
                <mxCell id="146" value="" style="rounded=1;whiteSpace=wrap;html=1;fillColor=#dae8fc;strokeColor=#6c8ebf;fontFamily=楷体;fontSize=15;" parent="1" vertex="1">
                    <mxGeometry x="146.06" y="394.5" width="40" height="20" as="geometry"/>
                </mxCell>
                <mxCell id="147" value="采购人步骤：" style="text;html=1;align=center;verticalAlign=middle;resizable=0;points=[];autosize=1;strokeColor=none;fillColor=none;fontSize=18;fontFamily=黑体;" parent="1" vertex="1">
                    <mxGeometry x="18.56" y="384.5" width="130" height="40" as="geometry"/>
                </mxCell>
                <mxCell id="148" value="代理机构步骤：" style="text;html=1;align=center;verticalAlign=middle;resizable=0;points=[];autosize=1;strokeColor=none;fillColor=none;fontSize=18;fontFamily=黑体;" parent="1" vertex="1">
                    <mxGeometry x="19.06" y="464.5" width="150" height="40" as="geometry"/>
                </mxCell>
                <mxCell id="149" value="供应商步骤：" style="text;html=1;align=center;verticalAlign=middle;resizable=0;points=[];autosize=1;strokeColor=none;fillColor=none;fontSize=18;fontFamily=黑体;" parent="1" vertex="1">
                    <mxGeometry x="18.06" y="424.5" width="130" height="40" as="geometry"/>
                </mxCell>
                <mxCell id="151" value="" style="rounded=1;whiteSpace=wrap;html=1;fillColor=#d5e8d4;strokeColor=#82b366;fontFamily=楷体;fontSize=15;" parent="1" vertex="1">
                    <mxGeometry x="163.56" y="474.5" width="40" height="20" as="geometry"/>
                </mxCell>
                <mxCell id="152" value="" style="rounded=1;whiteSpace=wrap;html=1;fillColor=#e1d5e7;strokeColor=#9673a6;fontFamily=楷体;fontSize=15;" parent="1" vertex="1">
                    <mxGeometry x="146.56" y="434.5" width="40" height="20" as="geometry"/>
                </mxCell>
                <mxCell id="153" value="步骤选择框：" style="text;html=1;align=center;verticalAlign=middle;resizable=0;points=[];autosize=1;strokeColor=none;fillColor=none;fontSize=18;fontFamily=黑体;" parent="1" vertex="1">
                    <mxGeometry x="19.06" y="540" width="130" height="40" as="geometry"/>
                </mxCell>
                <mxCell id="154" value="" style="rounded=1;whiteSpace=wrap;html=1;fillColor=#f5f5f5;strokeColor=#82b366;fontColor=#333333;fontFamily=楷体;fontSize=15;" parent="1" vertex="1">
                    <mxGeometry x="148.06" y="550" width="75" height="20" as="geometry"/>
                </mxCell>
                <mxCell id="157" value="" style="rounded=1;whiteSpace=wrap;html=1;fontFamily=楷体;fontSize=15;fillColor=#d5e8d4;strokeColor=#82b366;" parent="1" vertex="1">
                    <mxGeometry x="158.06" y="554.5" width="15" height="11" as="geometry"/>
                </mxCell>
                <mxCell id="159" value="" style="rounded=1;whiteSpace=wrap;html=1;fontFamily=楷体;fontSize=15;dashed=1;fillColor=#d5e8d4;strokeColor=#82b366;" parent="1" vertex="1">
                    <mxGeometry x="178.06" y="554.5" width="15" height="11" as="geometry"/>
                </mxCell>
                <mxCell id="160" value="" style="rounded=1;whiteSpace=wrap;html=1;fontFamily=楷体;fontSize=15;dashed=1;fillColor=#d5e8d4;strokeColor=#82b366;" parent="1" vertex="1">
                    <mxGeometry x="198.06" y="554.5" width="15" height="11" as="geometry"/>
                </mxCell>
                <mxCell id="161" value="" style="rhombus;whiteSpace=wrap;html=1;fontFamily=楷体;fontSize=15;fillColor=#e1d5e7;strokeColor=#9673a6;" parent="1" vertex="1">
                    <mxGeometry x="149.06" y="579.5" width="35" height="30" as="geometry"/>
                </mxCell>
                <mxCell id="162" value="条件判断框：" style="text;html=1;align=center;verticalAlign=middle;resizable=0;points=[];autosize=1;strokeColor=none;fillColor=none;fontSize=18;fontFamily=黑体;" parent="1" vertex="1">
                    <mxGeometry x="19.06" y="574.5" width="130" height="40" as="geometry"/>
                </mxCell>
                <mxCell id="164" value="" style="rounded=1;whiteSpace=wrap;html=1;fillColor=#fff2cc;strokeColor=none;" parent="1" vertex="1">
                    <mxGeometry x="18.06" y="700" width="150" height="540" as="geometry"/>
                </mxCell>
                <mxCell id="165" value="评审专家" style="text;html=1;align=center;verticalAlign=middle;resizable=0;points=[];autosize=1;strokeColor=none;fillColor=none;fontStyle=1;fontSize=18;fontFamily=黑体;" parent="1" vertex="1">
                    <mxGeometry x="43.06" y="700" width="100" height="40" as="geometry"/>
                </mxCell>
                <mxCell id="180" style="edgeStyle=orthogonalEdgeStyle;html=1;exitX=0.5;exitY=1;exitDx=0;exitDy=0;entryX=0.5;entryY=0;entryDx=0;entryDy=0;strokeWidth=2;fillColor=#f8cecc;strokeColor=#b85450;" parent="1" source="167" target="175" edge="1">
                    <mxGeometry relative="1" as="geometry"/>
                </mxCell>
                <mxCell id="167" value="" style="rounded=1;whiteSpace=wrap;html=1;fillColor=#f5f5f5;strokeColor=#b85450;fontColor=#333333;fontFamily=楷体;fontSize=15;" parent="1" vertex="1">
                    <mxGeometry x="28.06" y="1010" width="130" height="110" as="geometry"/>
                </mxCell>
                <mxCell id="168" value="评分" style="text;html=1;align=center;verticalAlign=middle;resizable=0;points=[];autosize=1;strokeColor=none;fillColor=none;fontSize=15;fontFamily=楷体;" parent="1" vertex="1">
                    <mxGeometry x="68.06" y="1010" width="50" height="30" as="geometry"/>
                </mxCell>
                <mxCell id="169" value="经济评分" style="rounded=1;whiteSpace=wrap;html=1;fontFamily=楷体;fontSize=15;fillColor=#f8cecc;strokeColor=#b85450;" parent="1" vertex="1">
                    <mxGeometry x="43.06" y="1041" width="37" height="30" as="geometry"/>
                </mxCell>
                <mxCell id="170" value="商务评分" style="rounded=1;whiteSpace=wrap;html=1;fontFamily=楷体;fontSize=15;dashed=1;fillColor=#f8cecc;strokeColor=#b85450;" parent="1" vertex="1">
                    <mxGeometry x="106.06" y="1041" width="37" height="30" as="geometry"/>
                </mxCell>
                <mxCell id="172" value="资格评分" style="rounded=1;whiteSpace=wrap;html=1;fontFamily=楷体;fontSize=15;fillColor=#f8cecc;strokeColor=#b85450;" parent="1" vertex="1">
                    <mxGeometry x="43.06" y="1080" width="37" height="30" as="geometry"/>
                </mxCell>
                <mxCell id="173" value="..." style="rounded=1;whiteSpace=wrap;html=1;fontFamily=楷体;fontSize=15;fillColor=#f8cecc;strokeColor=#b85450;" parent="1" vertex="1">
                    <mxGeometry x="106.06" y="1080" width="37" height="30" as="geometry"/>
                </mxCell>
                <mxCell id="181" style="edgeStyle=orthogonalEdgeStyle;html=1;exitX=1;exitY=0.5;exitDx=0;exitDy=0;entryX=0;entryY=0.5;entryDx=0;entryDy=0;strokeWidth=2;fillColor=#f8cecc;strokeColor=#b85450;" parent="1" source="175" target="105" edge="1">
                    <mxGeometry relative="1" as="geometry"/>
                </mxCell>
                <mxCell id="182" value="是" style="edgeLabel;html=1;align=center;verticalAlign=middle;resizable=0;points=[];" parent="181" vertex="1" connectable="0">
                    <mxGeometry x="-0.5633" y="2" relative="1" as="geometry">
                        <mxPoint as="offset"/>
                    </mxGeometry>
                </mxCell>
                <mxCell id="183" style="edgeStyle=orthogonalEdgeStyle;html=1;exitX=0;exitY=0.5;exitDx=0;exitDy=0;entryX=0;entryY=0.5;entryDx=0;entryDy=0;strokeWidth=2;fillColor=#f8cecc;strokeColor=#b85450;" parent="1" source="175" target="167" edge="1">
                    <mxGeometry relative="1" as="geometry">
                        <Array as="points">
                            <mxPoint x="8.059999999999999" y="1194"/>
                            <mxPoint x="8.059999999999999" y="1065"/>
                        </Array>
                    </mxGeometry>
                </mxCell>
                <mxCell id="184" value="否" style="edgeLabel;html=1;align=center;verticalAlign=middle;resizable=0;points=[];" parent="183" vertex="1" connectable="0">
                    <mxGeometry x="-0.0441" y="1" relative="1" as="geometry">
                        <mxPoint as="offset"/>
                    </mxGeometry>
                </mxCell>
                <mxCell id="175" value="确认评审结果" style="rhombus;whiteSpace=wrap;html=1;fontFamily=楷体;fontSize=15;fillColor=#f8cecc;strokeColor=#b85450;" parent="1" vertex="1">
                    <mxGeometry x="45.56" y="1159" width="95" height="70" as="geometry"/>
                </mxCell>
                <mxCell id="179" style="edgeStyle=orthogonalEdgeStyle;html=1;exitX=0.5;exitY=1;exitDx=0;exitDy=0;strokeWidth=2;fillColor=#f8cecc;strokeColor=#b85450;" parent="1" source="176" target="168" edge="1">
                    <mxGeometry relative="1" as="geometry"/>
                </mxCell>
                <mxCell id="176" value="推选评标专家组长" style="rounded=1;whiteSpace=wrap;html=1;fillColor=#f8cecc;strokeColor=#b85450;fontFamily=楷体;fontSize=15;" parent="1" vertex="1">
                    <mxGeometry x="40.56" y="910" width="105" height="50" as="geometry"/>
                </mxCell>
                <mxCell id="178" style="edgeStyle=orthogonalEdgeStyle;html=1;exitX=0;exitY=0.5;exitDx=0;exitDy=0;entryX=0.5;entryY=0;entryDx=0;entryDy=0;strokeWidth=2;fillColor=#d5e8d4;strokeColor=#82b366;" parent="1" source="104" target="176" edge="1">
                    <mxGeometry relative="1" as="geometry">
                        <Array as="points">
                            <mxPoint x="225" y="1055"/>
                            <mxPoint x="225" y="870"/>
                            <mxPoint x="93" y="870"/>
                        </Array>
                    </mxGeometry>
                </mxCell>
                <mxCell id="186" style="edgeStyle=orthogonalEdgeStyle;html=1;exitX=1;exitY=0.5;exitDx=0;exitDy=0;entryX=0;entryY=0.5;entryDx=0;entryDy=0;startArrow=classic;startFill=1;strokeWidth=2;dashed=1;" parent="1" source="214" target="100" edge="1">
                    <mxGeometry relative="1" as="geometry">
                        <Array as="points">
                            <mxPoint x="245" y="795"/>
                            <mxPoint x="245" y="895"/>
                        </Array>
                    </mxGeometry>
                </mxCell>
                <mxCell id="187" value="评审专家步骤：" style="text;html=1;align=center;verticalAlign=middle;resizable=0;points=[];autosize=1;strokeColor=none;fillColor=none;fontSize=18;fontFamily=黑体;" parent="1" vertex="1">
                    <mxGeometry x="19.06" y="504.5" width="150" height="40" as="geometry"/>
                </mxCell>
                <mxCell id="188" value="" style="rounded=1;whiteSpace=wrap;html=1;fillColor=#f8cecc;strokeColor=#b85450;fontFamily=楷体;fontSize=15;" parent="1" vertex="1">
                    <mxGeometry x="163.56" y="514.5" width="40" height="20" as="geometry"/>
                </mxCell>
                <mxCell id="193" style="edgeStyle=orthogonalEdgeStyle;html=1;exitX=0.5;exitY=1;exitDx=0;exitDy=0;entryX=0.5;entryY=0;entryDx=0;entryDy=0;strokeWidth=2;startArrow=none;startFill=0;fillColor=#d5e8d4;strokeColor=#82b366;" parent="1" source="189" target="85" edge="1">
                    <mxGeometry relative="1" as="geometry"/>
                </mxCell>
                <mxCell id="189" value="确认缴纳保证金" style="rhombus;whiteSpace=wrap;html=1;fontFamily=楷体;fontSize=15;fillColor=#d5e8d4;strokeColor=#82b366;" parent="1" vertex="1">
                    <mxGeometry x="325" y="615" width="80" height="60" as="geometry"/>
                </mxCell>
                <mxCell id="196" value="是" style="text;html=1;align=center;verticalAlign=middle;resizable=0;points=[];autosize=1;strokeColor=none;fillColor=none;" parent="1" vertex="1">
                    <mxGeometry x="359" y="670" width="40" height="30" as="geometry"/>
                </mxCell>
                <mxCell id="214" value="" style="rounded=1;whiteSpace=wrap;html=1;fillColor=#f5f5f5;strokeColor=#b85450;fontColor=#333333;fontFamily=楷体;fontSize=15;dashed=1;" vertex="1" parent="1">
                    <mxGeometry x="28.060000000000002" y="740" width="130" height="110" as="geometry"/>
                </mxCell>
                <mxCell id="185" value="专家库" style="shape=mxgraph.cisco.storage.relational_database;sketch=0;html=1;pointerEvents=1;dashed=0;fillColor=#036897;strokeColor=#ffffff;strokeWidth=2;verticalLabelPosition=bottom;verticalAlign=top;align=center;outlineConnect=0;fontSize=10;" parent="1" vertex="1">
                    <mxGeometry x="45.56" y="750" width="29.94" height="21.5" as="geometry"/>
                </mxCell>
                <mxCell id="216" value="内部库" style="shape=mxgraph.cisco.modems_and_phones.hootphone;sketch=0;html=1;pointerEvents=1;dashed=0;fillColor=#036897;strokeColor=#ffffff;strokeWidth=2;verticalLabelPosition=bottom;verticalAlign=top;align=center;outlineConnect=0;fontSize=10;" vertex="1" parent="1">
                    <mxGeometry x="100.56" y="747.75" width="40" height="26" as="geometry"/>
                </mxCell>
                <mxCell id="217" value="科研机构" style="shape=mxgraph.cisco.buildings.government_building;sketch=0;html=1;pointerEvents=1;dashed=0;fillColor=#036897;strokeColor=#ffffff;strokeWidth=2;verticalLabelPosition=bottom;verticalAlign=top;align=center;outlineConnect=0;fontSize=10;" vertex="1" parent="1">
                    <mxGeometry x="40.56" y="790" width="39" height="38" as="geometry"/>
                </mxCell>
                <mxCell id="218" value="..." style="text;html=1;align=center;verticalAlign=middle;resizable=0;points=[];autosize=1;strokeColor=none;fillColor=none;fontSize=10;" vertex="1" parent="1">
                    <mxGeometry x="100.56" y="798" width="30" height="30" as="geometry"/>
                </mxCell>
                <mxCell id="223" value="" style="rounded=1;whiteSpace=wrap;html=1;fillColor=#f5f5f5;strokeColor=#9f7ba9;fontColor=#333333;fontFamily=楷体;fontSize=15;" vertex="1" parent="1">
                    <mxGeometry x="569.5" y="532.5" width="133" height="84.5" as="geometry"/>
                </mxCell>
                <mxCell id="228" style="edgeStyle=orthogonalEdgeStyle;html=1;exitX=0.5;exitY=1;exitDx=0;exitDy=0;strokeWidth=2;fontSize=10;fillColor=#e1d5e7;strokeColor=#9673a6;entryX=0.5;entryY=0;entryDx=0;entryDy=0;" edge="1" parent="1" source="224" target="81">
                    <mxGeometry relative="1" as="geometry">
                        <mxPoint x="634" y="650" as="targetPoint"/>
                    </mxGeometry>
                </mxCell>
                <mxCell id="224" value="支付保证金" style="rounded=1;whiteSpace=wrap;html=1;fillColor=#e1d5e7;strokeColor=#9673a6;fontFamily=楷体;fontSize=15;" vertex="1" parent="1">
                    <mxGeometry x="574.5" y="557" width="60" height="50" as="geometry"/>
                </mxCell>
                <mxCell id="229" style="edgeStyle=orthogonalEdgeStyle;html=1;exitX=0.5;exitY=1;exitDx=0;exitDy=0;strokeWidth=2;fontSize=10;fillColor=#e1d5e7;strokeColor=#9673a6;entryX=0.5;entryY=0;entryDx=0;entryDy=0;" edge="1" parent="1" source="225" target="81">
                    <mxGeometry relative="1" as="geometry">
                        <mxPoint x="634" y="650" as="targetPoint"/>
                    </mxGeometry>
                </mxCell>
                <mxCell id="225" value="上传投标文件" style="rounded=1;whiteSpace=wrap;html=1;fillColor=#e1d5e7;strokeColor=#9673a6;fontFamily=楷体;fontSize=15;" vertex="1" parent="1">
                    <mxGeometry x="642.5" y="557" width="55" height="50" as="geometry"/>
                </mxCell>
                <mxCell id="73" style="edgeStyle=orthogonalEdgeStyle;html=1;exitX=0.5;exitY=1;exitDx=0;exitDy=0;fontFamily=楷体;fontSize=15;fillColor=#e1d5e7;strokeColor=#9673a6;strokeWidth=2;entryX=0.5;entryY=0;entryDx=0;entryDy=0;" parent="1" source="70" target="224" edge="1">
                    <mxGeometry relative="1" as="geometry">
                        <mxPoint x="636" y="534.5" as="targetPoint"/>
                    </mxGeometry>
                </mxCell>
                <mxCell id="227" style="edgeStyle=orthogonalEdgeStyle;html=1;exitX=0.5;exitY=1;exitDx=0;exitDy=0;entryX=0.5;entryY=0;entryDx=0;entryDy=0;fontSize=10;strokeWidth=2;fillColor=#e1d5e7;strokeColor=#9673a6;" edge="1" parent="1" source="70" target="225">
                    <mxGeometry relative="1" as="geometry"/>
                </mxCell>
                <mxCell id="191" style="edgeStyle=orthogonalEdgeStyle;html=1;exitX=1;exitY=0.5;exitDx=0;exitDy=0;entryX=0;entryY=0.5;entryDx=0;entryDy=0;strokeWidth=2;startArrow=classic;startFill=1;" parent="1" source="189" target="224" edge="1">
                    <mxGeometry relative="1" as="geometry">
                        <mxPoint x="583.5" y="645" as="targetPoint"/>
                    </mxGeometry>
                </mxCell>
                <mxCell id="192" value="否" style="edgeLabel;html=1;align=center;verticalAlign=middle;resizable=0;points=[];" parent="191" vertex="1" connectable="0">
                    <mxGeometry x="-0.2605" y="-2" relative="1" as="geometry">
                        <mxPoint as="offset"/>
                    </mxGeometry>
                </mxCell>
                <mxCell id="230" value="缴纳平台费用" style="rounded=1;whiteSpace=wrap;html=1;fillColor=#e1d5e7;strokeColor=#9673a6;fontFamily=楷体;fontSize=15;dashed=1;" vertex="1" parent="1">
                    <mxGeometry x="583.5" y="1130" width="105" height="50" as="geometry"/>
                </mxCell>
            </root>
        </mxGraphModel>
    </diagram>
</mxfile>